<mxfile host="app.diagrams.net" agent="Mozilla/5.0 (Windows NT 10.0; Win64; x64) AppleWebKit/537.36 (KHTML, like Gecko) Chrome/131.0.0.0 Safari/537.36" version="25.0.3">
  <diagram name="Page-1" id="9R5QsA9LV958NLhpj6dh">
    <mxGraphModel dx="2607" dy="1418" grid="1" gridSize="10" guides="1" tooltips="1" connect="1" arrows="1" fold="1" page="1" pageScale="1" pageWidth="850" pageHeight="1100" math="0" shadow="0">
      <root>
        <mxCell id="0" />
        <mxCell id="1" parent="0" />
        <mxCell id="XFiAy2dyZmGof44dRNuj-9" style="rounded=0;orthogonalLoop=1;jettySize=auto;html=1;exitX=0.5;exitY=1;exitDx=0;exitDy=0;fillColor=#d5e8d4;strokeColor=#82b366;" edge="1" parent="1" source="XFiAy2dyZmGof44dRNuj-1" target="XFiAy2dyZmGof44dRNuj-2">
          <mxGeometry relative="1" as="geometry" />
        </mxCell>
        <mxCell id="XFiAy2dyZmGof44dRNuj-1" value="(0,0)&lt;br&gt;2.23" style="ellipse;shape=umlEntity;whiteSpace=wrap;html=1;" vertex="1" parent="1">
          <mxGeometry x="380" y="30" width="80" height="80" as="geometry" />
        </mxCell>
        <mxCell id="XFiAy2dyZmGof44dRNuj-2" value="(0,1)&lt;br&gt;2" style="ellipse;shape=umlEntity;whiteSpace=wrap;html=1;" vertex="1" parent="1">
          <mxGeometry x="260" y="150" width="80" height="80" as="geometry" />
        </mxCell>
        <mxCell id="XFiAy2dyZmGof44dRNuj-3" value="(1,0)&lt;br&gt;1.41" style="ellipse;shape=umlEntity;whiteSpace=wrap;html=1;" vertex="1" parent="1">
          <mxGeometry x="510" y="150" width="80" height="80" as="geometry" />
        </mxCell>
        <mxCell id="XFiAy2dyZmGof44dRNuj-4" value="(1,1)&lt;br&gt;1" style="ellipse;shape=umlEntity;whiteSpace=wrap;html=1;" vertex="1" parent="1">
          <mxGeometry x="260" y="280" width="80" height="80" as="geometry" />
        </mxCell>
        <mxCell id="XFiAy2dyZmGof44dRNuj-5" value="(1,1)&lt;br&gt;1" style="ellipse;shape=umlEntity;whiteSpace=wrap;html=1;" vertex="1" parent="1">
          <mxGeometry x="440" y="280" width="80" height="80" as="geometry" />
        </mxCell>
        <mxCell id="XFiAy2dyZmGof44dRNuj-6" value="(2,0)&lt;br&gt;1" style="ellipse;shape=umlEntity;whiteSpace=wrap;html=1;" vertex="1" parent="1">
          <mxGeometry x="570" y="280" width="80" height="80" as="geometry" />
        </mxCell>
        <mxCell id="XFiAy2dyZmGof44dRNuj-10" style="rounded=0;orthogonalLoop=1;jettySize=auto;html=1;exitX=0.588;exitY=1.013;exitDx=0;exitDy=0;exitPerimeter=0;" edge="1" parent="1" source="XFiAy2dyZmGof44dRNuj-1" target="XFiAy2dyZmGof44dRNuj-3">
          <mxGeometry relative="1" as="geometry">
            <mxPoint x="402" y="108" as="sourcePoint" />
            <mxPoint x="338" y="172" as="targetPoint" />
          </mxGeometry>
        </mxCell>
        <mxCell id="XFiAy2dyZmGof44dRNuj-11" style="rounded=0;orthogonalLoop=1;jettySize=auto;html=1;exitX=0.5;exitY=1;exitDx=0;exitDy=0;entryX=0.5;entryY=0;entryDx=0;entryDy=0;fillColor=#d5e8d4;strokeColor=#82b366;" edge="1" parent="1" source="XFiAy2dyZmGof44dRNuj-2" target="XFiAy2dyZmGof44dRNuj-4">
          <mxGeometry relative="1" as="geometry">
            <mxPoint x="425" y="220" as="sourcePoint" />
            <mxPoint x="338" y="278" as="targetPoint" />
          </mxGeometry>
        </mxCell>
        <mxCell id="XFiAy2dyZmGof44dRNuj-12" style="rounded=0;orthogonalLoop=1;jettySize=auto;html=1;exitX=0.5;exitY=1;exitDx=0;exitDy=0;" edge="1" parent="1" source="XFiAy2dyZmGof44dRNuj-3" target="XFiAy2dyZmGof44dRNuj-5">
          <mxGeometry relative="1" as="geometry">
            <mxPoint x="310" y="240" as="sourcePoint" />
            <mxPoint x="310" y="290" as="targetPoint" />
          </mxGeometry>
        </mxCell>
        <mxCell id="XFiAy2dyZmGof44dRNuj-13" style="rounded=0;orthogonalLoop=1;jettySize=auto;html=1;exitX=0.5;exitY=1;exitDx=0;exitDy=0;entryX=0.388;entryY=0.05;entryDx=0;entryDy=0;entryPerimeter=0;" edge="1" parent="1" source="XFiAy2dyZmGof44dRNuj-3" target="XFiAy2dyZmGof44dRNuj-6">
          <mxGeometry relative="1" as="geometry">
            <mxPoint x="550" y="243" as="sourcePoint" />
            <mxPoint x="513" y="297" as="targetPoint" />
          </mxGeometry>
        </mxCell>
        <mxCell id="XFiAy2dyZmGof44dRNuj-15" value="(1,0)&lt;br&gt;1.41" style="ellipse;shape=umlEntity;whiteSpace=wrap;html=1;" vertex="1" parent="1">
          <mxGeometry x="140" y="410" width="80" height="80" as="geometry" />
        </mxCell>
        <mxCell id="XFiAy2dyZmGof44dRNuj-16" value="(2,1)&lt;br&gt;0" style="ellipse;shape=umlEntity;whiteSpace=wrap;html=1;" vertex="1" parent="1">
          <mxGeometry x="290" y="410" width="80" height="80" as="geometry" />
        </mxCell>
        <mxCell id="XFiAy2dyZmGof44dRNuj-17" value="" style="endArrow=classic;html=1;rounded=0;exitX=0.5;exitY=1;exitDx=0;exitDy=0;" edge="1" parent="1" source="XFiAy2dyZmGof44dRNuj-4" target="XFiAy2dyZmGof44dRNuj-15">
          <mxGeometry width="50" height="50" relative="1" as="geometry">
            <mxPoint x="400" y="230" as="sourcePoint" />
            <mxPoint x="450" y="180" as="targetPoint" />
          </mxGeometry>
        </mxCell>
        <mxCell id="XFiAy2dyZmGof44dRNuj-18" value="" style="endArrow=classic;html=1;rounded=0;exitX=0.5;exitY=1;exitDx=0;exitDy=0;entryX=0.2;entryY=0.075;entryDx=0;entryDy=0;entryPerimeter=0;fillColor=#d5e8d4;strokeColor=#82b366;" edge="1" parent="1" source="XFiAy2dyZmGof44dRNuj-4" target="XFiAy2dyZmGof44dRNuj-16">
          <mxGeometry width="50" height="50" relative="1" as="geometry">
            <mxPoint x="310" y="370" as="sourcePoint" />
            <mxPoint x="258" y="422" as="targetPoint" />
          </mxGeometry>
        </mxCell>
        <mxCell id="XFiAy2dyZmGof44dRNuj-25" value="1" style="text;html=1;align=center;verticalAlign=middle;whiteSpace=wrap;rounded=0;" vertex="1" parent="1">
          <mxGeometry x="330" y="110" width="60" height="30" as="geometry" />
        </mxCell>
        <mxCell id="XFiAy2dyZmGof44dRNuj-27" value="1" style="text;html=1;align=center;verticalAlign=middle;whiteSpace=wrap;rounded=0;" vertex="1" parent="1">
          <mxGeometry x="280" y="240" width="60" height="30" as="geometry" />
        </mxCell>
        <mxCell id="XFiAy2dyZmGof44dRNuj-28" value="1" style="text;html=1;align=center;verticalAlign=middle;whiteSpace=wrap;rounded=0;" vertex="1" parent="1">
          <mxGeometry x="220" y="370" width="60" height="30" as="geometry" />
        </mxCell>
        <mxCell id="XFiAy2dyZmGof44dRNuj-29" value="1.5" style="text;html=1;align=center;verticalAlign=middle;whiteSpace=wrap;rounded=0;" vertex="1" parent="1">
          <mxGeometry x="285" y="370" width="60" height="30" as="geometry" />
        </mxCell>
        <mxCell id="XFiAy2dyZmGof44dRNuj-30" value="1" style="text;html=1;align=center;verticalAlign=middle;whiteSpace=wrap;rounded=0;" vertex="1" parent="1">
          <mxGeometry x="480" y="240" width="60" height="30" as="geometry" />
        </mxCell>
        <mxCell id="XFiAy2dyZmGof44dRNuj-32" value="1.5" style="text;html=1;align=center;verticalAlign=middle;whiteSpace=wrap;rounded=0;" vertex="1" parent="1">
          <mxGeometry x="460" y="120" width="60" height="30" as="geometry" />
        </mxCell>
        <mxCell id="XFiAy2dyZmGof44dRNuj-33" value="2" style="text;html=1;align=center;verticalAlign=middle;whiteSpace=wrap;rounded=0;" vertex="1" parent="1">
          <mxGeometry x="560" y="240" width="60" height="30" as="geometry" />
        </mxCell>
        <mxCell id="XFiAy2dyZmGof44dRNuj-36" value="" style="ellipse;whiteSpace=wrap;html=1;aspect=fixed;" vertex="1" parent="1">
          <mxGeometry x="320" y="190" width="40" height="40" as="geometry" />
        </mxCell>
        <mxCell id="XFiAy2dyZmGof44dRNuj-37" value="" style="ellipse;whiteSpace=wrap;html=1;aspect=fixed;" vertex="1" parent="1">
          <mxGeometry x="580" y="190" width="40" height="40" as="geometry" />
        </mxCell>
        <mxCell id="XFiAy2dyZmGof44dRNuj-38" value="" style="ellipse;whiteSpace=wrap;html=1;aspect=fixed;" vertex="1" parent="1">
          <mxGeometry x="640" y="320" width="40" height="40" as="geometry" />
        </mxCell>
        <mxCell id="XFiAy2dyZmGof44dRNuj-39" value="" style="ellipse;whiteSpace=wrap;html=1;aspect=fixed;" vertex="1" parent="1">
          <mxGeometry x="510" y="320" width="40" height="40" as="geometry" />
        </mxCell>
        <mxCell id="XFiAy2dyZmGof44dRNuj-40" value="" style="ellipse;whiteSpace=wrap;html=1;aspect=fixed;" vertex="1" parent="1">
          <mxGeometry x="350" y="450" width="40" height="40" as="geometry" />
        </mxCell>
        <mxCell id="XFiAy2dyZmGof44dRNuj-41" value="" style="ellipse;whiteSpace=wrap;html=1;aspect=fixed;" vertex="1" parent="1">
          <mxGeometry x="200" y="450" width="40" height="40" as="geometry" />
        </mxCell>
        <mxCell id="XFiAy2dyZmGof44dRNuj-42" value="" style="ellipse;whiteSpace=wrap;html=1;aspect=fixed;" vertex="1" parent="1">
          <mxGeometry x="320" y="320" width="40" height="40" as="geometry" />
        </mxCell>
        <mxCell id="XFiAy2dyZmGof44dRNuj-43" value="" style="ellipse;whiteSpace=wrap;html=1;aspect=fixed;" vertex="1" parent="1">
          <mxGeometry x="440" y="70" width="40" height="40" as="geometry" />
        </mxCell>
        <mxCell id="XFiAy2dyZmGof44dRNuj-45" value="2.23" style="text;html=1;align=center;verticalAlign=middle;whiteSpace=wrap;rounded=0;" vertex="1" parent="1">
          <mxGeometry x="430" y="75" width="60" height="30" as="geometry" />
        </mxCell>
        <mxCell id="XFiAy2dyZmGof44dRNuj-46" value="2.91" style="text;html=1;align=center;verticalAlign=middle;whiteSpace=wrap;rounded=0;" vertex="1" parent="1">
          <mxGeometry x="570" y="195" width="60" height="30" as="geometry" />
        </mxCell>
        <mxCell id="XFiAy2dyZmGof44dRNuj-47" value="3.5" style="text;html=1;align=center;verticalAlign=middle;whiteSpace=wrap;rounded=0;" vertex="1" parent="1">
          <mxGeometry x="500" y="325" width="60" height="30" as="geometry" />
        </mxCell>
        <mxCell id="XFiAy2dyZmGof44dRNuj-48" value="4.5" style="text;html=1;align=center;verticalAlign=middle;whiteSpace=wrap;rounded=0;" vertex="1" parent="1">
          <mxGeometry x="630" y="325" width="60" height="30" as="geometry" />
        </mxCell>
        <mxCell id="XFiAy2dyZmGof44dRNuj-50" value="&lt;h1 style=&quot;margin-top: 0px;&quot;&gt;A* search&lt;/h1&gt;" style="text;html=1;whiteSpace=wrap;overflow=hidden;rounded=0;" vertex="1" parent="1">
          <mxGeometry x="40" y="40" width="180" height="120" as="geometry" />
        </mxCell>
        <mxCell id="XFiAy2dyZmGof44dRNuj-51" value="3" style="text;html=1;align=center;verticalAlign=middle;whiteSpace=wrap;rounded=0;" vertex="1" parent="1">
          <mxGeometry x="310" y="195" width="60" height="30" as="geometry" />
        </mxCell>
        <mxCell id="XFiAy2dyZmGof44dRNuj-52" value="3" style="text;html=1;align=center;verticalAlign=middle;whiteSpace=wrap;rounded=0;" vertex="1" parent="1">
          <mxGeometry x="310" y="325" width="60" height="30" as="geometry" />
        </mxCell>
        <mxCell id="XFiAy2dyZmGof44dRNuj-53" value="3.5" style="text;html=1;align=center;verticalAlign=middle;whiteSpace=wrap;rounded=0;" vertex="1" parent="1">
          <mxGeometry x="340" y="455" width="60" height="30" as="geometry" />
        </mxCell>
        <mxCell id="XFiAy2dyZmGof44dRNuj-54" value="4.41" style="text;html=1;align=center;verticalAlign=middle;whiteSpace=wrap;rounded=0;" vertex="1" parent="1">
          <mxGeometry x="190" y="455" width="60" height="30" as="geometry" />
        </mxCell>
        <mxCell id="XFiAy2dyZmGof44dRNuj-55" value="(1,0)&lt;br&gt;1.41" style="ellipse;shape=umlEntity;whiteSpace=wrap;html=1;" vertex="1" parent="1">
          <mxGeometry x="410" y="410" width="80" height="80" as="geometry" />
        </mxCell>
        <mxCell id="XFiAy2dyZmGof44dRNuj-56" value="(2,1)&lt;br&gt;0" style="ellipse;shape=umlEntity;whiteSpace=wrap;html=1;" vertex="1" parent="1">
          <mxGeometry x="520" y="405" width="80" height="80" as="geometry" />
        </mxCell>
        <mxCell id="XFiAy2dyZmGof44dRNuj-57" value="1" style="text;html=1;align=center;verticalAlign=middle;whiteSpace=wrap;rounded=0;" vertex="1" parent="1">
          <mxGeometry x="420" y="370" width="60" height="30" as="geometry" />
        </mxCell>
        <mxCell id="XFiAy2dyZmGof44dRNuj-59" value="" style="ellipse;whiteSpace=wrap;html=1;aspect=fixed;" vertex="1" parent="1">
          <mxGeometry x="580" y="445" width="40" height="40" as="geometry" />
        </mxCell>
        <mxCell id="XFiAy2dyZmGof44dRNuj-60" value="" style="ellipse;whiteSpace=wrap;html=1;aspect=fixed;" vertex="1" parent="1">
          <mxGeometry x="470" y="450" width="40" height="40" as="geometry" />
        </mxCell>
        <mxCell id="XFiAy2dyZmGof44dRNuj-61" value="4" style="text;html=1;align=center;verticalAlign=middle;whiteSpace=wrap;rounded=0;" vertex="1" parent="1">
          <mxGeometry x="570" y="450" width="60" height="30" as="geometry" />
        </mxCell>
        <mxCell id="XFiAy2dyZmGof44dRNuj-62" value="4.91" style="text;html=1;align=center;verticalAlign=middle;whiteSpace=wrap;rounded=0;" vertex="1" parent="1">
          <mxGeometry x="460" y="455" width="60" height="30" as="geometry" />
        </mxCell>
        <mxCell id="XFiAy2dyZmGof44dRNuj-63" value="" style="endArrow=classic;html=1;rounded=0;entryX=0.5;entryY=0;entryDx=0;entryDy=0;" edge="1" parent="1" target="XFiAy2dyZmGof44dRNuj-55">
          <mxGeometry width="50" height="50" relative="1" as="geometry">
            <mxPoint x="480" y="360" as="sourcePoint" />
            <mxPoint x="420" y="380" as="targetPoint" />
          </mxGeometry>
        </mxCell>
        <mxCell id="XFiAy2dyZmGof44dRNuj-64" value="" style="endArrow=classic;html=1;rounded=0;entryX=0.284;entryY=0.023;entryDx=0;entryDy=0;exitX=0.5;exitY=1;exitDx=0;exitDy=0;entryPerimeter=0;" edge="1" parent="1" source="XFiAy2dyZmGof44dRNuj-5" target="XFiAy2dyZmGof44dRNuj-56">
          <mxGeometry width="50" height="50" relative="1" as="geometry">
            <mxPoint x="484" y="373" as="sourcePoint" />
            <mxPoint x="460" y="420" as="targetPoint" />
          </mxGeometry>
        </mxCell>
        <mxCell id="XFiAy2dyZmGof44dRNuj-65" value="1.5" style="text;html=1;align=center;verticalAlign=middle;whiteSpace=wrap;rounded=0;" vertex="1" parent="1">
          <mxGeometry x="500" y="370" width="60" height="30" as="geometry" />
        </mxCell>
        <mxCell id="XFiAy2dyZmGof44dRNuj-66" style="rounded=0;orthogonalLoop=1;jettySize=auto;html=1;exitX=0.5;exitY=1;exitDx=0;exitDy=0;" edge="1" parent="1" source="XFiAy2dyZmGof44dRNuj-67" target="XFiAy2dyZmGof44dRNuj-68">
          <mxGeometry relative="1" as="geometry" />
        </mxCell>
        <mxCell id="XFiAy2dyZmGof44dRNuj-67" value="(0,0)&lt;br&gt;2.23" style="ellipse;shape=umlEntity;whiteSpace=wrap;html=1;" vertex="1" parent="1">
          <mxGeometry x="430" y="700" width="80" height="80" as="geometry" />
        </mxCell>
        <mxCell id="XFiAy2dyZmGof44dRNuj-68" value="(0,1)&lt;br&gt;2" style="ellipse;shape=umlEntity;whiteSpace=wrap;html=1;" vertex="1" parent="1">
          <mxGeometry x="310" y="820" width="80" height="80" as="geometry" />
        </mxCell>
        <mxCell id="XFiAy2dyZmGof44dRNuj-69" value="(1,0)&lt;br&gt;1.41" style="ellipse;shape=umlEntity;whiteSpace=wrap;html=1;" vertex="1" parent="1">
          <mxGeometry x="560" y="820" width="80" height="80" as="geometry" />
        </mxCell>
        <mxCell id="XFiAy2dyZmGof44dRNuj-73" style="rounded=0;orthogonalLoop=1;jettySize=auto;html=1;exitX=0.588;exitY=1.013;exitDx=0;exitDy=0;exitPerimeter=0;" edge="1" parent="1" source="XFiAy2dyZmGof44dRNuj-67" target="XFiAy2dyZmGof44dRNuj-69">
          <mxGeometry relative="1" as="geometry">
            <mxPoint x="452" y="778" as="sourcePoint" />
            <mxPoint x="388" y="842" as="targetPoint" />
          </mxGeometry>
        </mxCell>
        <mxCell id="XFiAy2dyZmGof44dRNuj-81" value="1" style="text;html=1;align=center;verticalAlign=middle;whiteSpace=wrap;rounded=0;" vertex="1" parent="1">
          <mxGeometry x="380" y="780" width="60" height="30" as="geometry" />
        </mxCell>
        <mxCell id="XFiAy2dyZmGof44dRNuj-86" value="1.5" style="text;html=1;align=center;verticalAlign=middle;whiteSpace=wrap;rounded=0;" vertex="1" parent="1">
          <mxGeometry x="510" y="790" width="60" height="30" as="geometry" />
        </mxCell>
        <mxCell id="XFiAy2dyZmGof44dRNuj-88" value="" style="ellipse;whiteSpace=wrap;html=1;aspect=fixed;" vertex="1" parent="1">
          <mxGeometry x="370" y="860" width="40" height="40" as="geometry" />
        </mxCell>
        <mxCell id="XFiAy2dyZmGof44dRNuj-89" value="" style="ellipse;whiteSpace=wrap;html=1;aspect=fixed;" vertex="1" parent="1">
          <mxGeometry x="630" y="860" width="40" height="40" as="geometry" />
        </mxCell>
        <mxCell id="XFiAy2dyZmGof44dRNuj-95" value="" style="ellipse;whiteSpace=wrap;html=1;aspect=fixed;" vertex="1" parent="1">
          <mxGeometry x="490" y="740" width="40" height="40" as="geometry" />
        </mxCell>
        <mxCell id="XFiAy2dyZmGof44dRNuj-96" value="2.23" style="text;html=1;align=center;verticalAlign=middle;whiteSpace=wrap;rounded=0;" vertex="1" parent="1">
          <mxGeometry x="480" y="745" width="60" height="30" as="geometry" />
        </mxCell>
        <mxCell id="XFiAy2dyZmGof44dRNuj-97" value="2.91" style="text;html=1;align=center;verticalAlign=middle;whiteSpace=wrap;rounded=0;" vertex="1" parent="1">
          <mxGeometry x="620" y="865" width="60" height="30" as="geometry" />
        </mxCell>
        <mxCell id="XFiAy2dyZmGof44dRNuj-100" value="&lt;h1 style=&quot;margin-top: 0px;&quot;&gt;IDA* search&lt;/h1&gt;" style="text;html=1;whiteSpace=wrap;overflow=hidden;rounded=0;" vertex="1" parent="1">
          <mxGeometry x="90" y="710" width="180" height="120" as="geometry" />
        </mxCell>
        <mxCell id="XFiAy2dyZmGof44dRNuj-101" value="3" style="text;html=1;align=center;verticalAlign=middle;whiteSpace=wrap;rounded=0;" vertex="1" parent="1">
          <mxGeometry x="360" y="865" width="60" height="30" as="geometry" />
        </mxCell>
        <mxCell id="XFiAy2dyZmGof44dRNuj-115" value="f-limit=2.23" style="text;html=1;align=center;verticalAlign=middle;whiteSpace=wrap;rounded=0;" vertex="1" parent="1">
          <mxGeometry x="150" y="810" width="100" height="30" as="geometry" />
        </mxCell>
        <mxCell id="XFiAy2dyZmGof44dRNuj-122" value="x" style="text;html=1;align=center;verticalAlign=middle;resizable=0;points=[];autosize=1;strokeColor=none;fillColor=none;" vertex="1" parent="1">
          <mxGeometry x="335" y="900" width="30" height="30" as="geometry" />
        </mxCell>
        <mxCell id="XFiAy2dyZmGof44dRNuj-123" value="x" style="text;html=1;align=center;verticalAlign=middle;resizable=0;points=[];autosize=1;strokeColor=none;fillColor=none;" vertex="1" parent="1">
          <mxGeometry x="585" y="900" width="30" height="30" as="geometry" />
        </mxCell>
        <mxCell id="XFiAy2dyZmGof44dRNuj-124" value="f-limit=2.91" style="text;html=1;align=center;verticalAlign=middle;whiteSpace=wrap;rounded=0;" vertex="1" parent="1">
          <mxGeometry x="130" y="1175" width="100" height="30" as="geometry" />
        </mxCell>
        <mxCell id="XFiAy2dyZmGof44dRNuj-125" style="rounded=0;orthogonalLoop=1;jettySize=auto;html=1;exitX=0.5;exitY=1;exitDx=0;exitDy=0;" edge="1" parent="1" source="XFiAy2dyZmGof44dRNuj-126" target="XFiAy2dyZmGof44dRNuj-127">
          <mxGeometry relative="1" as="geometry" />
        </mxCell>
        <mxCell id="XFiAy2dyZmGof44dRNuj-126" value="(0,0)&lt;br&gt;2.23" style="ellipse;shape=umlEntity;whiteSpace=wrap;html=1;" vertex="1" parent="1">
          <mxGeometry x="385" y="1185" width="80" height="80" as="geometry" />
        </mxCell>
        <mxCell id="XFiAy2dyZmGof44dRNuj-127" value="(0,1)&lt;br&gt;2" style="ellipse;shape=umlEntity;whiteSpace=wrap;html=1;" vertex="1" parent="1">
          <mxGeometry x="265" y="1305" width="80" height="80" as="geometry" />
        </mxCell>
        <mxCell id="XFiAy2dyZmGof44dRNuj-128" value="(1,0)&lt;br&gt;1.41" style="ellipse;shape=umlEntity;whiteSpace=wrap;html=1;" vertex="1" parent="1">
          <mxGeometry x="515" y="1305" width="80" height="80" as="geometry" />
        </mxCell>
        <mxCell id="XFiAy2dyZmGof44dRNuj-129" style="rounded=0;orthogonalLoop=1;jettySize=auto;html=1;exitX=0.588;exitY=1.013;exitDx=0;exitDy=0;exitPerimeter=0;" edge="1" parent="1" source="XFiAy2dyZmGof44dRNuj-126" target="XFiAy2dyZmGof44dRNuj-128">
          <mxGeometry relative="1" as="geometry">
            <mxPoint x="407" y="1263" as="sourcePoint" />
            <mxPoint x="343" y="1327" as="targetPoint" />
          </mxGeometry>
        </mxCell>
        <mxCell id="XFiAy2dyZmGof44dRNuj-130" value="1" style="text;html=1;align=center;verticalAlign=middle;whiteSpace=wrap;rounded=0;" vertex="1" parent="1">
          <mxGeometry x="335" y="1265" width="60" height="30" as="geometry" />
        </mxCell>
        <mxCell id="XFiAy2dyZmGof44dRNuj-131" value="1.5" style="text;html=1;align=center;verticalAlign=middle;whiteSpace=wrap;rounded=0;" vertex="1" parent="1">
          <mxGeometry x="465" y="1275" width="60" height="30" as="geometry" />
        </mxCell>
        <mxCell id="XFiAy2dyZmGof44dRNuj-132" value="" style="ellipse;whiteSpace=wrap;html=1;aspect=fixed;" vertex="1" parent="1">
          <mxGeometry x="325" y="1345" width="40" height="40" as="geometry" />
        </mxCell>
        <mxCell id="XFiAy2dyZmGof44dRNuj-133" value="" style="ellipse;whiteSpace=wrap;html=1;aspect=fixed;" vertex="1" parent="1">
          <mxGeometry x="585" y="1345" width="40" height="40" as="geometry" />
        </mxCell>
        <mxCell id="XFiAy2dyZmGof44dRNuj-134" value="" style="ellipse;whiteSpace=wrap;html=1;aspect=fixed;" vertex="1" parent="1">
          <mxGeometry x="445" y="1225" width="40" height="40" as="geometry" />
        </mxCell>
        <mxCell id="XFiAy2dyZmGof44dRNuj-135" value="2.23" style="text;html=1;align=center;verticalAlign=middle;whiteSpace=wrap;rounded=0;" vertex="1" parent="1">
          <mxGeometry x="435" y="1230" width="60" height="30" as="geometry" />
        </mxCell>
        <mxCell id="XFiAy2dyZmGof44dRNuj-136" value="2.91" style="text;html=1;align=center;verticalAlign=middle;whiteSpace=wrap;rounded=0;" vertex="1" parent="1">
          <mxGeometry x="575" y="1350" width="60" height="30" as="geometry" />
        </mxCell>
        <mxCell id="XFiAy2dyZmGof44dRNuj-137" value="3" style="text;html=1;align=center;verticalAlign=middle;whiteSpace=wrap;rounded=0;" vertex="1" parent="1">
          <mxGeometry x="315" y="1350" width="60" height="30" as="geometry" />
        </mxCell>
        <mxCell id="XFiAy2dyZmGof44dRNuj-138" value="(1,1)&lt;br&gt;1" style="ellipse;shape=umlEntity;whiteSpace=wrap;html=1;" vertex="1" parent="1">
          <mxGeometry x="450" y="1439" width="80" height="80" as="geometry" />
        </mxCell>
        <mxCell id="XFiAy2dyZmGof44dRNuj-139" value="(2,0)&lt;br&gt;1" style="ellipse;shape=umlEntity;whiteSpace=wrap;html=1;" vertex="1" parent="1">
          <mxGeometry x="580" y="1439" width="80" height="80" as="geometry" />
        </mxCell>
        <mxCell id="XFiAy2dyZmGof44dRNuj-142" value="" style="ellipse;whiteSpace=wrap;html=1;aspect=fixed;" vertex="1" parent="1">
          <mxGeometry x="650" y="1479" width="40" height="40" as="geometry" />
        </mxCell>
        <mxCell id="XFiAy2dyZmGof44dRNuj-143" value="" style="ellipse;whiteSpace=wrap;html=1;aspect=fixed;" vertex="1" parent="1">
          <mxGeometry x="520" y="1479" width="40" height="40" as="geometry" />
        </mxCell>
        <mxCell id="XFiAy2dyZmGof44dRNuj-144" value="3.5" style="text;html=1;align=center;verticalAlign=middle;whiteSpace=wrap;rounded=0;" vertex="1" parent="1">
          <mxGeometry x="510" y="1484" width="60" height="30" as="geometry" />
        </mxCell>
        <mxCell id="XFiAy2dyZmGof44dRNuj-145" value="4.5" style="text;html=1;align=center;verticalAlign=middle;whiteSpace=wrap;rounded=0;" vertex="1" parent="1">
          <mxGeometry x="640" y="1484" width="60" height="30" as="geometry" />
        </mxCell>
        <mxCell id="XFiAy2dyZmGof44dRNuj-146" style="rounded=0;orthogonalLoop=1;jettySize=auto;html=1;exitX=0.5;exitY=1;exitDx=0;exitDy=0;" edge="1" parent="1">
          <mxGeometry relative="1" as="geometry">
            <mxPoint x="555" y="1387" as="sourcePoint" />
            <mxPoint x="510" y="1445" as="targetPoint" />
          </mxGeometry>
        </mxCell>
        <mxCell id="XFiAy2dyZmGof44dRNuj-147" style="rounded=0;orthogonalLoop=1;jettySize=auto;html=1;exitX=0.5;exitY=1;exitDx=0;exitDy=0;entryX=0.388;entryY=0.05;entryDx=0;entryDy=0;entryPerimeter=0;" edge="1" parent="1">
          <mxGeometry relative="1" as="geometry">
            <mxPoint x="555" y="1387" as="sourcePoint" />
            <mxPoint x="606" y="1441" as="targetPoint" />
          </mxGeometry>
        </mxCell>
        <mxCell id="XFiAy2dyZmGof44dRNuj-148" value="1" style="text;html=1;align=center;verticalAlign=middle;whiteSpace=wrap;rounded=0;" vertex="1" parent="1">
          <mxGeometry x="485" y="1397" width="60" height="30" as="geometry" />
        </mxCell>
        <mxCell id="XFiAy2dyZmGof44dRNuj-149" value="2" style="text;html=1;align=center;verticalAlign=middle;whiteSpace=wrap;rounded=0;" vertex="1" parent="1">
          <mxGeometry x="565" y="1397" width="60" height="30" as="geometry" />
        </mxCell>
        <mxCell id="XFiAy2dyZmGof44dRNuj-150" value="x" style="text;html=1;align=center;verticalAlign=middle;resizable=0;points=[];autosize=1;strokeColor=none;fillColor=none;" vertex="1" parent="1">
          <mxGeometry x="290" y="1385" width="30" height="30" as="geometry" />
        </mxCell>
        <mxCell id="XFiAy2dyZmGof44dRNuj-151" value="x" style="text;html=1;align=center;verticalAlign=middle;resizable=0;points=[];autosize=1;strokeColor=none;fillColor=none;" vertex="1" parent="1">
          <mxGeometry x="475" y="1519" width="30" height="30" as="geometry" />
        </mxCell>
        <mxCell id="XFiAy2dyZmGof44dRNuj-152" value="x" style="text;html=1;align=center;verticalAlign=middle;resizable=0;points=[];autosize=1;strokeColor=none;fillColor=none;" vertex="1" parent="1">
          <mxGeometry x="610" y="1519" width="30" height="30" as="geometry" />
        </mxCell>
        <mxCell id="XFiAy2dyZmGof44dRNuj-153" value="f-limit=3" style="text;html=1;align=center;verticalAlign=middle;whiteSpace=wrap;rounded=0;" vertex="1" parent="1">
          <mxGeometry x="135" y="1585" width="100" height="30" as="geometry" />
        </mxCell>
        <mxCell id="XFiAy2dyZmGof44dRNuj-154" style="rounded=0;orthogonalLoop=1;jettySize=auto;html=1;exitX=0.5;exitY=1;exitDx=0;exitDy=0;" edge="1" parent="1" source="XFiAy2dyZmGof44dRNuj-155" target="XFiAy2dyZmGof44dRNuj-156">
          <mxGeometry relative="1" as="geometry" />
        </mxCell>
        <mxCell id="XFiAy2dyZmGof44dRNuj-155" value="(0,0)&lt;br&gt;2.23" style="ellipse;shape=umlEntity;whiteSpace=wrap;html=1;" vertex="1" parent="1">
          <mxGeometry x="415" y="1635" width="80" height="80" as="geometry" />
        </mxCell>
        <mxCell id="XFiAy2dyZmGof44dRNuj-156" value="(0,1)&lt;br&gt;2" style="ellipse;shape=umlEntity;whiteSpace=wrap;html=1;" vertex="1" parent="1">
          <mxGeometry x="295" y="1755" width="80" height="80" as="geometry" />
        </mxCell>
        <mxCell id="XFiAy2dyZmGof44dRNuj-157" value="(1,0)&lt;br&gt;1.41" style="ellipse;shape=umlEntity;whiteSpace=wrap;html=1;" vertex="1" parent="1">
          <mxGeometry x="545" y="1755" width="80" height="80" as="geometry" />
        </mxCell>
        <mxCell id="XFiAy2dyZmGof44dRNuj-158" value="(1,1)&lt;br&gt;1" style="ellipse;shape=umlEntity;whiteSpace=wrap;html=1;" vertex="1" parent="1">
          <mxGeometry x="295" y="1885" width="80" height="80" as="geometry" />
        </mxCell>
        <mxCell id="XFiAy2dyZmGof44dRNuj-159" value="(1,1)&lt;br&gt;1" style="ellipse;shape=umlEntity;whiteSpace=wrap;html=1;" vertex="1" parent="1">
          <mxGeometry x="475" y="1885" width="80" height="80" as="geometry" />
        </mxCell>
        <mxCell id="XFiAy2dyZmGof44dRNuj-160" value="(2,0)&lt;br&gt;1" style="ellipse;shape=umlEntity;whiteSpace=wrap;html=1;" vertex="1" parent="1">
          <mxGeometry x="605" y="1885" width="80" height="80" as="geometry" />
        </mxCell>
        <mxCell id="XFiAy2dyZmGof44dRNuj-161" style="rounded=0;orthogonalLoop=1;jettySize=auto;html=1;exitX=0.588;exitY=1.013;exitDx=0;exitDy=0;exitPerimeter=0;" edge="1" parent="1" source="XFiAy2dyZmGof44dRNuj-155" target="XFiAy2dyZmGof44dRNuj-157">
          <mxGeometry relative="1" as="geometry">
            <mxPoint x="437" y="1713" as="sourcePoint" />
            <mxPoint x="373" y="1777" as="targetPoint" />
          </mxGeometry>
        </mxCell>
        <mxCell id="XFiAy2dyZmGof44dRNuj-162" style="rounded=0;orthogonalLoop=1;jettySize=auto;html=1;exitX=0.5;exitY=1;exitDx=0;exitDy=0;entryX=0.5;entryY=0;entryDx=0;entryDy=0;" edge="1" parent="1" source="XFiAy2dyZmGof44dRNuj-156" target="XFiAy2dyZmGof44dRNuj-158">
          <mxGeometry relative="1" as="geometry">
            <mxPoint x="460" y="1825" as="sourcePoint" />
            <mxPoint x="373" y="1883" as="targetPoint" />
          </mxGeometry>
        </mxCell>
        <mxCell id="XFiAy2dyZmGof44dRNuj-163" style="rounded=0;orthogonalLoop=1;jettySize=auto;html=1;exitX=0.5;exitY=1;exitDx=0;exitDy=0;" edge="1" parent="1" source="XFiAy2dyZmGof44dRNuj-157" target="XFiAy2dyZmGof44dRNuj-159">
          <mxGeometry relative="1" as="geometry">
            <mxPoint x="345" y="1845" as="sourcePoint" />
            <mxPoint x="345" y="1895" as="targetPoint" />
          </mxGeometry>
        </mxCell>
        <mxCell id="XFiAy2dyZmGof44dRNuj-164" style="rounded=0;orthogonalLoop=1;jettySize=auto;html=1;exitX=0.5;exitY=1;exitDx=0;exitDy=0;entryX=0.388;entryY=0.05;entryDx=0;entryDy=0;entryPerimeter=0;" edge="1" parent="1" source="XFiAy2dyZmGof44dRNuj-157" target="XFiAy2dyZmGof44dRNuj-160">
          <mxGeometry relative="1" as="geometry">
            <mxPoint x="585" y="1848" as="sourcePoint" />
            <mxPoint x="548" y="1902" as="targetPoint" />
          </mxGeometry>
        </mxCell>
        <mxCell id="XFiAy2dyZmGof44dRNuj-165" value="(1,0)&lt;br&gt;1.41" style="ellipse;shape=umlEntity;whiteSpace=wrap;html=1;" vertex="1" parent="1">
          <mxGeometry x="175" y="2015" width="80" height="80" as="geometry" />
        </mxCell>
        <mxCell id="XFiAy2dyZmGof44dRNuj-166" value="(2,1)&lt;br&gt;0" style="ellipse;shape=umlEntity;whiteSpace=wrap;html=1;" vertex="1" parent="1">
          <mxGeometry x="325" y="2015" width="80" height="80" as="geometry" />
        </mxCell>
        <mxCell id="XFiAy2dyZmGof44dRNuj-167" value="" style="endArrow=classic;html=1;rounded=0;exitX=0.5;exitY=1;exitDx=0;exitDy=0;" edge="1" parent="1" source="XFiAy2dyZmGof44dRNuj-158" target="XFiAy2dyZmGof44dRNuj-165">
          <mxGeometry width="50" height="50" relative="1" as="geometry">
            <mxPoint x="435" y="1835" as="sourcePoint" />
            <mxPoint x="485" y="1785" as="targetPoint" />
          </mxGeometry>
        </mxCell>
        <mxCell id="XFiAy2dyZmGof44dRNuj-168" value="" style="endArrow=classic;html=1;rounded=0;exitX=0.5;exitY=1;exitDx=0;exitDy=0;entryX=0.2;entryY=0.075;entryDx=0;entryDy=0;entryPerimeter=0;" edge="1" parent="1" source="XFiAy2dyZmGof44dRNuj-158" target="XFiAy2dyZmGof44dRNuj-166">
          <mxGeometry width="50" height="50" relative="1" as="geometry">
            <mxPoint x="345" y="1975" as="sourcePoint" />
            <mxPoint x="293" y="2027" as="targetPoint" />
          </mxGeometry>
        </mxCell>
        <mxCell id="XFiAy2dyZmGof44dRNuj-169" value="1" style="text;html=1;align=center;verticalAlign=middle;whiteSpace=wrap;rounded=0;" vertex="1" parent="1">
          <mxGeometry x="365" y="1715" width="60" height="30" as="geometry" />
        </mxCell>
        <mxCell id="XFiAy2dyZmGof44dRNuj-170" value="1" style="text;html=1;align=center;verticalAlign=middle;whiteSpace=wrap;rounded=0;" vertex="1" parent="1">
          <mxGeometry x="315" y="1845" width="60" height="30" as="geometry" />
        </mxCell>
        <mxCell id="XFiAy2dyZmGof44dRNuj-171" value="1" style="text;html=1;align=center;verticalAlign=middle;whiteSpace=wrap;rounded=0;" vertex="1" parent="1">
          <mxGeometry x="255" y="1975" width="60" height="30" as="geometry" />
        </mxCell>
        <mxCell id="XFiAy2dyZmGof44dRNuj-172" value="1.5" style="text;html=1;align=center;verticalAlign=middle;whiteSpace=wrap;rounded=0;" vertex="1" parent="1">
          <mxGeometry x="320" y="1975" width="60" height="30" as="geometry" />
        </mxCell>
        <mxCell id="XFiAy2dyZmGof44dRNuj-173" value="1" style="text;html=1;align=center;verticalAlign=middle;whiteSpace=wrap;rounded=0;" vertex="1" parent="1">
          <mxGeometry x="515" y="1845" width="60" height="30" as="geometry" />
        </mxCell>
        <mxCell id="XFiAy2dyZmGof44dRNuj-174" value="1.5" style="text;html=1;align=center;verticalAlign=middle;whiteSpace=wrap;rounded=0;" vertex="1" parent="1">
          <mxGeometry x="495" y="1725" width="60" height="30" as="geometry" />
        </mxCell>
        <mxCell id="XFiAy2dyZmGof44dRNuj-175" value="2" style="text;html=1;align=center;verticalAlign=middle;whiteSpace=wrap;rounded=0;" vertex="1" parent="1">
          <mxGeometry x="595" y="1845" width="60" height="30" as="geometry" />
        </mxCell>
        <mxCell id="XFiAy2dyZmGof44dRNuj-176" value="" style="ellipse;whiteSpace=wrap;html=1;aspect=fixed;" vertex="1" parent="1">
          <mxGeometry x="355" y="1795" width="40" height="40" as="geometry" />
        </mxCell>
        <mxCell id="XFiAy2dyZmGof44dRNuj-177" value="" style="ellipse;whiteSpace=wrap;html=1;aspect=fixed;" vertex="1" parent="1">
          <mxGeometry x="615" y="1795" width="40" height="40" as="geometry" />
        </mxCell>
        <mxCell id="XFiAy2dyZmGof44dRNuj-178" value="" style="ellipse;whiteSpace=wrap;html=1;aspect=fixed;" vertex="1" parent="1">
          <mxGeometry x="675" y="1925" width="40" height="40" as="geometry" />
        </mxCell>
        <mxCell id="XFiAy2dyZmGof44dRNuj-179" value="" style="ellipse;whiteSpace=wrap;html=1;aspect=fixed;" vertex="1" parent="1">
          <mxGeometry x="545" y="1925" width="40" height="40" as="geometry" />
        </mxCell>
        <mxCell id="XFiAy2dyZmGof44dRNuj-180" value="" style="ellipse;whiteSpace=wrap;html=1;aspect=fixed;" vertex="1" parent="1">
          <mxGeometry x="385" y="2055" width="40" height="40" as="geometry" />
        </mxCell>
        <mxCell id="XFiAy2dyZmGof44dRNuj-181" value="" style="ellipse;whiteSpace=wrap;html=1;aspect=fixed;" vertex="1" parent="1">
          <mxGeometry x="235" y="2055" width="40" height="40" as="geometry" />
        </mxCell>
        <mxCell id="XFiAy2dyZmGof44dRNuj-182" value="" style="ellipse;whiteSpace=wrap;html=1;aspect=fixed;" vertex="1" parent="1">
          <mxGeometry x="355" y="1925" width="40" height="40" as="geometry" />
        </mxCell>
        <mxCell id="XFiAy2dyZmGof44dRNuj-183" value="" style="ellipse;whiteSpace=wrap;html=1;aspect=fixed;" vertex="1" parent="1">
          <mxGeometry x="475" y="1675" width="40" height="40" as="geometry" />
        </mxCell>
        <mxCell id="XFiAy2dyZmGof44dRNuj-184" value="2.23" style="text;html=1;align=center;verticalAlign=middle;whiteSpace=wrap;rounded=0;" vertex="1" parent="1">
          <mxGeometry x="465" y="1680" width="60" height="30" as="geometry" />
        </mxCell>
        <mxCell id="XFiAy2dyZmGof44dRNuj-185" value="2.91" style="text;html=1;align=center;verticalAlign=middle;whiteSpace=wrap;rounded=0;" vertex="1" parent="1">
          <mxGeometry x="605" y="1800" width="60" height="30" as="geometry" />
        </mxCell>
        <mxCell id="XFiAy2dyZmGof44dRNuj-186" value="3.5" style="text;html=1;align=center;verticalAlign=middle;whiteSpace=wrap;rounded=0;" vertex="1" parent="1">
          <mxGeometry x="535" y="1930" width="60" height="30" as="geometry" />
        </mxCell>
        <mxCell id="XFiAy2dyZmGof44dRNuj-187" value="4.5" style="text;html=1;align=center;verticalAlign=middle;whiteSpace=wrap;rounded=0;" vertex="1" parent="1">
          <mxGeometry x="665" y="1930" width="60" height="30" as="geometry" />
        </mxCell>
        <mxCell id="XFiAy2dyZmGof44dRNuj-188" value="3" style="text;html=1;align=center;verticalAlign=middle;whiteSpace=wrap;rounded=0;" vertex="1" parent="1">
          <mxGeometry x="345" y="1800" width="60" height="30" as="geometry" />
        </mxCell>
        <mxCell id="XFiAy2dyZmGof44dRNuj-189" value="3" style="text;html=1;align=center;verticalAlign=middle;whiteSpace=wrap;rounded=0;" vertex="1" parent="1">
          <mxGeometry x="345" y="1930" width="60" height="30" as="geometry" />
        </mxCell>
        <mxCell id="XFiAy2dyZmGof44dRNuj-190" value="3.5" style="text;html=1;align=center;verticalAlign=middle;whiteSpace=wrap;rounded=0;" vertex="1" parent="1">
          <mxGeometry x="375" y="2060" width="60" height="30" as="geometry" />
        </mxCell>
        <mxCell id="XFiAy2dyZmGof44dRNuj-191" value="4.41" style="text;html=1;align=center;verticalAlign=middle;whiteSpace=wrap;rounded=0;" vertex="1" parent="1">
          <mxGeometry x="225" y="2060" width="60" height="30" as="geometry" />
        </mxCell>
        <mxCell id="XFiAy2dyZmGof44dRNuj-202" value="x" style="text;html=1;align=center;verticalAlign=middle;resizable=0;points=[];autosize=1;strokeColor=none;fillColor=none;" vertex="1" parent="1">
          <mxGeometry x="200" y="2095" width="30" height="30" as="geometry" />
        </mxCell>
        <mxCell id="XFiAy2dyZmGof44dRNuj-203" value="x" style="text;html=1;align=center;verticalAlign=middle;resizable=0;points=[];autosize=1;strokeColor=none;fillColor=none;" vertex="1" parent="1">
          <mxGeometry x="350" y="2095" width="30" height="30" as="geometry" />
        </mxCell>
        <mxCell id="XFiAy2dyZmGof44dRNuj-206" value="x" style="text;html=1;align=center;verticalAlign=middle;resizable=0;points=[];autosize=1;strokeColor=none;fillColor=none;" vertex="1" parent="1">
          <mxGeometry x="500" y="1965" width="30" height="30" as="geometry" />
        </mxCell>
        <mxCell id="XFiAy2dyZmGof44dRNuj-207" value="x" style="text;html=1;align=center;verticalAlign=middle;resizable=0;points=[];autosize=1;strokeColor=none;fillColor=none;" vertex="1" parent="1">
          <mxGeometry x="635" y="1965" width="30" height="30" as="geometry" />
        </mxCell>
        <mxCell id="XFiAy2dyZmGof44dRNuj-208" value="f-limit=3.5" style="text;html=1;align=center;verticalAlign=middle;whiteSpace=wrap;rounded=0;" vertex="1" parent="1">
          <mxGeometry x="130" y="2390" width="100" height="30" as="geometry" />
        </mxCell>
        <mxCell id="XFiAy2dyZmGof44dRNuj-209" style="rounded=0;orthogonalLoop=1;jettySize=auto;html=1;exitX=0.5;exitY=1;exitDx=0;exitDy=0;fillColor=#d5e8d4;strokeColor=#82b366;" edge="1" parent="1" source="XFiAy2dyZmGof44dRNuj-210" target="XFiAy2dyZmGof44dRNuj-211">
          <mxGeometry relative="1" as="geometry" />
        </mxCell>
        <mxCell id="XFiAy2dyZmGof44dRNuj-210" value="(0,0)&lt;br&gt;2.23" style="ellipse;shape=umlEntity;whiteSpace=wrap;html=1;" vertex="1" parent="1">
          <mxGeometry x="440" y="2390" width="80" height="80" as="geometry" />
        </mxCell>
        <mxCell id="XFiAy2dyZmGof44dRNuj-211" value="(0,1)&lt;br&gt;2" style="ellipse;shape=umlEntity;whiteSpace=wrap;html=1;" vertex="1" parent="1">
          <mxGeometry x="320" y="2510" width="80" height="80" as="geometry" />
        </mxCell>
        <mxCell id="XFiAy2dyZmGof44dRNuj-212" value="(1,0)&lt;br&gt;1.41" style="ellipse;shape=umlEntity;whiteSpace=wrap;html=1;" vertex="1" parent="1">
          <mxGeometry x="570" y="2510" width="80" height="80" as="geometry" />
        </mxCell>
        <mxCell id="XFiAy2dyZmGof44dRNuj-213" value="(1,1)&lt;br&gt;1" style="ellipse;shape=umlEntity;whiteSpace=wrap;html=1;" vertex="1" parent="1">
          <mxGeometry x="320" y="2640" width="80" height="80" as="geometry" />
        </mxCell>
        <mxCell id="XFiAy2dyZmGof44dRNuj-216" style="rounded=0;orthogonalLoop=1;jettySize=auto;html=1;exitX=0.588;exitY=1.013;exitDx=0;exitDy=0;exitPerimeter=0;" edge="1" parent="1" source="XFiAy2dyZmGof44dRNuj-210" target="XFiAy2dyZmGof44dRNuj-212">
          <mxGeometry relative="1" as="geometry">
            <mxPoint x="462" y="2468" as="sourcePoint" />
            <mxPoint x="398" y="2532" as="targetPoint" />
          </mxGeometry>
        </mxCell>
        <mxCell id="XFiAy2dyZmGof44dRNuj-217" style="rounded=0;orthogonalLoop=1;jettySize=auto;html=1;exitX=0.5;exitY=1;exitDx=0;exitDy=0;entryX=0.5;entryY=0;entryDx=0;entryDy=0;fillColor=#d5e8d4;strokeColor=#82b366;" edge="1" parent="1" source="XFiAy2dyZmGof44dRNuj-211" target="XFiAy2dyZmGof44dRNuj-213">
          <mxGeometry relative="1" as="geometry">
            <mxPoint x="485" y="2580" as="sourcePoint" />
            <mxPoint x="398" y="2638" as="targetPoint" />
          </mxGeometry>
        </mxCell>
        <mxCell id="XFiAy2dyZmGof44dRNuj-220" value="(1,0)&lt;br&gt;1.41" style="ellipse;shape=umlEntity;whiteSpace=wrap;html=1;" vertex="1" parent="1">
          <mxGeometry x="200" y="2770" width="80" height="80" as="geometry" />
        </mxCell>
        <mxCell id="XFiAy2dyZmGof44dRNuj-221" value="(2,1)&lt;br&gt;0" style="ellipse;shape=umlEntity;whiteSpace=wrap;html=1;" vertex="1" parent="1">
          <mxGeometry x="350" y="2770" width="80" height="80" as="geometry" />
        </mxCell>
        <mxCell id="XFiAy2dyZmGof44dRNuj-222" value="" style="endArrow=classic;html=1;rounded=0;exitX=0.5;exitY=1;exitDx=0;exitDy=0;" edge="1" parent="1" source="XFiAy2dyZmGof44dRNuj-213" target="XFiAy2dyZmGof44dRNuj-220">
          <mxGeometry width="50" height="50" relative="1" as="geometry">
            <mxPoint x="460" y="2590" as="sourcePoint" />
            <mxPoint x="510" y="2540" as="targetPoint" />
          </mxGeometry>
        </mxCell>
        <mxCell id="XFiAy2dyZmGof44dRNuj-223" value="" style="endArrow=classic;html=1;rounded=0;exitX=0.5;exitY=1;exitDx=0;exitDy=0;entryX=0.2;entryY=0.075;entryDx=0;entryDy=0;entryPerimeter=0;fillColor=#d5e8d4;strokeColor=#82b366;" edge="1" parent="1" source="XFiAy2dyZmGof44dRNuj-213" target="XFiAy2dyZmGof44dRNuj-221">
          <mxGeometry width="50" height="50" relative="1" as="geometry">
            <mxPoint x="370" y="2730" as="sourcePoint" />
            <mxPoint x="318" y="2782" as="targetPoint" />
          </mxGeometry>
        </mxCell>
        <mxCell id="XFiAy2dyZmGof44dRNuj-224" value="1" style="text;html=1;align=center;verticalAlign=middle;whiteSpace=wrap;rounded=0;" vertex="1" parent="1">
          <mxGeometry x="390" y="2470" width="60" height="30" as="geometry" />
        </mxCell>
        <mxCell id="XFiAy2dyZmGof44dRNuj-225" value="1" style="text;html=1;align=center;verticalAlign=middle;whiteSpace=wrap;rounded=0;" vertex="1" parent="1">
          <mxGeometry x="340" y="2600" width="60" height="30" as="geometry" />
        </mxCell>
        <mxCell id="XFiAy2dyZmGof44dRNuj-226" value="1" style="text;html=1;align=center;verticalAlign=middle;whiteSpace=wrap;rounded=0;" vertex="1" parent="1">
          <mxGeometry x="280" y="2730" width="60" height="30" as="geometry" />
        </mxCell>
        <mxCell id="XFiAy2dyZmGof44dRNuj-227" value="1.5" style="text;html=1;align=center;verticalAlign=middle;whiteSpace=wrap;rounded=0;" vertex="1" parent="1">
          <mxGeometry x="345" y="2730" width="60" height="30" as="geometry" />
        </mxCell>
        <mxCell id="XFiAy2dyZmGof44dRNuj-229" value="1.5" style="text;html=1;align=center;verticalAlign=middle;whiteSpace=wrap;rounded=0;" vertex="1" parent="1">
          <mxGeometry x="520" y="2480" width="60" height="30" as="geometry" />
        </mxCell>
        <mxCell id="XFiAy2dyZmGof44dRNuj-231" value="" style="ellipse;whiteSpace=wrap;html=1;aspect=fixed;" vertex="1" parent="1">
          <mxGeometry x="380" y="2550" width="40" height="40" as="geometry" />
        </mxCell>
        <mxCell id="XFiAy2dyZmGof44dRNuj-232" value="" style="ellipse;whiteSpace=wrap;html=1;aspect=fixed;" vertex="1" parent="1">
          <mxGeometry x="640" y="2550" width="40" height="40" as="geometry" />
        </mxCell>
        <mxCell id="XFiAy2dyZmGof44dRNuj-235" value="" style="ellipse;whiteSpace=wrap;html=1;aspect=fixed;" vertex="1" parent="1">
          <mxGeometry x="410" y="2810" width="40" height="40" as="geometry" />
        </mxCell>
        <mxCell id="XFiAy2dyZmGof44dRNuj-236" value="" style="ellipse;whiteSpace=wrap;html=1;aspect=fixed;" vertex="1" parent="1">
          <mxGeometry x="260" y="2810" width="40" height="40" as="geometry" />
        </mxCell>
        <mxCell id="XFiAy2dyZmGof44dRNuj-237" value="" style="ellipse;whiteSpace=wrap;html=1;aspect=fixed;" vertex="1" parent="1">
          <mxGeometry x="380" y="2680" width="40" height="40" as="geometry" />
        </mxCell>
        <mxCell id="XFiAy2dyZmGof44dRNuj-238" value="" style="ellipse;whiteSpace=wrap;html=1;aspect=fixed;" vertex="1" parent="1">
          <mxGeometry x="500" y="2430" width="40" height="40" as="geometry" />
        </mxCell>
        <mxCell id="XFiAy2dyZmGof44dRNuj-239" value="2.23" style="text;html=1;align=center;verticalAlign=middle;whiteSpace=wrap;rounded=0;" vertex="1" parent="1">
          <mxGeometry x="490" y="2435" width="60" height="30" as="geometry" />
        </mxCell>
        <mxCell id="XFiAy2dyZmGof44dRNuj-240" value="2.91" style="text;html=1;align=center;verticalAlign=middle;whiteSpace=wrap;rounded=0;" vertex="1" parent="1">
          <mxGeometry x="630" y="2555" width="60" height="30" as="geometry" />
        </mxCell>
        <mxCell id="XFiAy2dyZmGof44dRNuj-243" value="3" style="text;html=1;align=center;verticalAlign=middle;whiteSpace=wrap;rounded=0;" vertex="1" parent="1">
          <mxGeometry x="370" y="2555" width="60" height="30" as="geometry" />
        </mxCell>
        <mxCell id="XFiAy2dyZmGof44dRNuj-244" value="3" style="text;html=1;align=center;verticalAlign=middle;whiteSpace=wrap;rounded=0;" vertex="1" parent="1">
          <mxGeometry x="370" y="2685" width="60" height="30" as="geometry" />
        </mxCell>
        <mxCell id="XFiAy2dyZmGof44dRNuj-245" value="3.5" style="text;html=1;align=center;verticalAlign=middle;whiteSpace=wrap;rounded=0;" vertex="1" parent="1">
          <mxGeometry x="400" y="2815" width="60" height="30" as="geometry" />
        </mxCell>
        <mxCell id="XFiAy2dyZmGof44dRNuj-246" value="4.41" style="text;html=1;align=center;verticalAlign=middle;whiteSpace=wrap;rounded=0;" vertex="1" parent="1">
          <mxGeometry x="250" y="2815" width="60" height="30" as="geometry" />
        </mxCell>
        <mxCell id="XFiAy2dyZmGof44dRNuj-247" value="x" style="text;html=1;align=center;verticalAlign=middle;resizable=0;points=[];autosize=1;strokeColor=none;fillColor=none;" vertex="1" parent="1">
          <mxGeometry x="225" y="2850" width="30" height="30" as="geometry" />
        </mxCell>
        <mxCell id="XFiAy2dyZmGof44dRNuj-251" value="Goal" style="text;html=1;align=center;verticalAlign=middle;resizable=0;points=[];autosize=1;strokeColor=none;fillColor=none;" vertex="1" parent="1">
          <mxGeometry x="365" y="2850" width="50" height="30" as="geometry" />
        </mxCell>
      </root>
    </mxGraphModel>
  </diagram>
</mxfile>
